<svg width="313" height="90" viewBox="0 0 313 90" fill="none" xmlns="http://www.w3.org/2000/svg">
<path d="M273.757 89.856C270.258 89.856 267.016 89.2587 264.029 88.064C261.128 86.784 258.738 84.8214 256.861 82.176C255.069 79.5307 254.173 76.032 254.173 71.68C254.173 67.7547 254.898 64.5547 256.349 62.08C257.885 59.6054 259.976 57.6 262.621 56.064C265.266 54.4427 268.253 53.2054 271.581 52.352C274.909 51.4987 278.365 50.7734 281.949 50.176C286.728 49.408 290.269 48.768 292.573 48.256C294.877 47.744 296.37 47.1467 297.053 46.464C297.821 45.696 298.205 44.6294 298.205 43.264C298.205 39.5094 296.925 36.6507 294.365 34.688C291.89 32.64 288.733 31.616 284.893 31.616C282.504 31.616 280.157 32.0854 277.853 33.024C275.549 33.8774 273.629 35.328 272.093 37.376C270.557 39.424 269.704 42.24 269.533 45.824L256.733 44.288C256.989 39.68 257.97 35.7974 259.677 32.64C261.384 29.4827 263.602 27.008 266.333 25.216C269.149 23.3387 272.178 22.016 275.421 21.248C278.664 20.3947 281.906 19.968 285.149 19.968C290.61 19.968 295.304 20.992 299.229 23.04C303.24 25.088 306.354 28.16 308.573 32.256C310.792 36.2667 311.901 41.344 311.901 47.488V59.904C311.901 63.0614 311.901 66.2187 311.901 69.376C311.986 72.5334 312.029 75.6907 312.029 78.848C312.029 81.92 312.029 85.0347 312.029 88.192H299.357C299.613 84.5227 299.826 80.896 299.997 77.312C300.168 73.728 300.338 69.9734 300.509 66.048H299.485C298.973 70.4854 297.565 74.5387 295.261 78.208C292.957 81.792 289.97 84.6507 286.301 86.784C282.717 88.832 278.536 89.856 273.757 89.856ZM278.237 78.848C280.626 78.848 282.973 78.3787 285.277 77.44C287.581 76.5014 289.672 75.0934 291.549 73.216C293.512 71.2534 295.09 68.864 296.285 66.048C297.48 63.1467 298.12 59.8614 298.205 56.192L298.333 53.248L301.661 52.352C300.808 53.632 299.357 54.6134 297.309 55.296C295.346 55.9787 293.085 56.5334 290.525 56.96C288.05 57.3867 285.49 57.8134 282.845 58.24C280.285 58.6667 277.896 59.3067 275.677 60.16C273.458 61.0134 271.666 62.208 270.301 63.744C268.936 65.1947 268.253 67.2427 268.253 69.888C268.253 72.6187 269.149 74.7947 270.941 76.416C272.733 78.0374 275.165 78.848 278.237 78.848Z" fill="black"/>
<path d="M237.404 89.472C231.004 89.472 226.14 87.7227 222.812 84.224C219.484 80.64 217.82 75.3494 217.82 68.352V33.152H209.756V23.296H212.316C215.815 22.9547 218.332 21.888 219.868 20.096C221.404 18.2187 222.3 15.488 222.556 11.904L223.068 7.16803H231.644V21.76H248.54V33.408H231.644V67.456C231.644 70.784 232.412 73.216 233.948 74.752C235.484 76.288 237.575 77.056 240.22 77.056C241.585 77.056 243.036 76.8427 244.572 76.416C246.108 75.9894 247.431 75.3494 248.54 74.496V87.424C246.492 88.1067 244.572 88.6187 242.78 88.96C240.988 89.3014 239.196 89.472 237.404 89.472Z" fill="black"/>
<path d="M193.779 89.472C187.379 89.472 182.515 87.7227 179.187 84.224C175.859 80.64 174.195 75.3494 174.195 68.352V33.152H166.131V23.296H168.691C172.19 22.9547 174.707 21.888 176.243 20.096C177.779 18.2187 178.675 15.488 178.931 11.904L179.443 7.16803H188.019V21.76H204.915V33.408H188.019V67.456C188.019 70.784 188.787 73.216 190.323 74.752C191.859 76.288 193.95 77.056 196.595 77.056C197.96 77.056 199.411 76.8427 200.947 76.416C202.483 75.9894 203.806 75.3494 204.915 74.496V87.424C202.867 88.1067 200.947 88.6187 199.155 88.96C197.363 89.3014 195.571 89.472 193.779 89.472Z" fill="black"/>
<path d="M134.869 89.856C130.602 89.856 126.634 89.3867 122.965 88.448C119.296 87.5947 116.138 86.1867 113.493 84.224C110.848 82.2614 108.842 79.6587 107.477 76.416C106.112 73.1734 105.6 69.248 105.941 64.64L118.485 63.488C118.314 67.328 118.912 70.4 120.277 72.704C121.642 75.008 123.605 76.672 126.165 77.696C128.81 78.6347 131.84 79.104 135.253 79.104C139.69 79.104 143.189 78.3787 145.749 76.928C148.309 75.392 149.589 73.2587 149.589 70.528C149.589 68.3947 148.949 66.7734 147.669 65.664C146.389 64.4694 144.512 63.5307 142.037 62.848C139.562 62.08 136.576 61.312 133.077 60.544C129.408 59.776 125.952 58.9654 122.709 58.112C119.466 57.1734 116.608 56.0214 114.133 54.656C111.658 53.2054 109.738 51.3707 108.373 49.152C107.008 46.848 106.325 43.9894 106.325 40.576C106.325 36.3094 107.434 32.64 109.653 29.568C111.957 26.496 115.114 24.1494 119.125 22.528C123.136 20.8214 127.829 19.968 133.205 19.968C138.154 19.968 142.72 20.7787 146.901 22.4C151.168 24.0214 154.496 26.624 156.885 30.208C159.36 33.7067 160.384 38.3147 159.957 44.032L147.669 45.44C147.925 42.112 147.413 39.3814 146.133 37.248C144.853 35.1147 143.018 33.536 140.629 32.512C138.325 31.4027 135.594 30.848 132.437 30.848C128.512 30.848 125.397 31.6587 123.093 33.28C120.789 34.816 119.637 36.9067 119.637 39.552C119.637 41.7707 120.32 43.52 121.685 44.8C123.136 45.9947 125.141 46.9334 127.701 47.616C130.346 48.2987 133.376 48.9814 136.789 49.664C139.776 50.2614 142.805 50.944 145.877 51.712C148.949 52.48 151.765 53.5894 154.325 55.04C156.885 56.4907 158.976 58.4534 160.597 60.928C162.218 63.3174 163.029 66.432 163.029 70.272C163.029 74.2827 161.877 77.7814 159.573 80.768C157.354 83.6694 154.154 85.9307 149.973 87.552C145.792 89.088 140.757 89.856 134.869 89.856Z" fill="black"/>
<path d="M82.233 88.192V21.76H96.185V88.192H82.233ZM89.145 14.208C86.329 14.208 84.153 13.6107 82.617 12.416C81.1663 11.136 80.441 9.38666 80.441 7.168C80.441 4.864 81.1663 3.11466 82.617 1.92C84.153 0.639999 86.329 0 89.145 0C92.0463 0 94.2223 0.639999 95.673 1.92C97.1237 3.11466 97.849 4.864 97.849 7.168C97.849 9.472 97.081 11.2213 95.545 12.416C94.0943 13.6107 91.961 14.208 89.145 14.208Z" fill="black"/>
<path d="M28.8 88.192L0 3.71201H15.36L37.76 76.16H38.144L60.288 3.71201H75.52L46.848 88.192H28.8Z" fill="black"/>
</svg>
