<svg width="173" height="49" viewBox="0 0 173 49" fill="none" xmlns="http://www.w3.org/2000/svg">
<path d="M154.891 48.448C152.63 48.448 150.624 48.0427 148.875 47.232C147.168 46.3787 145.824 45.2267 144.843 43.776C143.862 42.2827 143.371 40.576 143.371 38.656C143.371 36.8213 143.755 35.1787 144.523 33.728C145.334 32.2347 146.571 30.976 148.235 29.952C149.942 28.928 152.075 28.2027 154.635 27.776L167.435 25.664V30.656L155.979 32.576C153.76 32.96 152.139 33.664 151.115 34.688C150.134 35.712 149.643 36.9707 149.643 38.464C149.643 39.872 150.198 41.0453 151.307 41.984C152.459 42.9227 153.888 43.392 155.595 43.392C157.771 43.392 159.648 42.944 161.227 42.048C162.848 41.1093 164.107 39.8507 165.003 38.272C165.942 36.6933 166.411 34.944 166.411 33.024V24.256C166.411 22.3787 165.707 20.864 164.299 19.712C162.934 18.5173 161.12 17.92 158.859 17.92C156.896 17.92 155.147 18.432 153.611 19.456C152.118 20.4373 151.008 21.76 150.283 23.424L145.099 20.736C145.739 19.1573 146.763 17.7493 148.171 16.512C149.579 15.232 151.222 14.2293 153.099 13.504C154.976 12.7787 156.939 12.416 158.987 12.416C161.632 12.416 163.958 12.928 165.963 13.952C167.968 14.9333 169.526 16.32 170.635 18.112C171.787 19.8613 172.363 21.9093 172.363 24.256V47.68H166.539V41.152L167.627 41.536C166.902 42.9013 165.92 44.096 164.683 45.12C163.446 46.144 161.995 46.9547 160.331 47.552C158.667 48.1493 156.854 48.448 154.891 48.448Z" fill="black"/>
<path d="M133.858 48.064C130.487 48.064 127.884 47.104 126.05 45.184C124.258 43.264 123.362 40.5547 123.362 37.056V18.88H117.09V13.184H118.37C119.906 13.184 121.122 12.7147 122.018 11.776C122.914 10.8373 123.362 9.6 123.362 8.064V5.248H129.314V13.184H137.058V18.88H129.314V36.864C129.314 38.016 129.484 39.0187 129.826 39.872C130.21 40.7253 130.828 41.408 131.682 41.92C132.535 42.3893 133.666 42.624 135.074 42.624C135.372 42.624 135.735 42.6027 136.162 42.56C136.631 42.5173 137.058 42.4747 137.442 42.432V47.68C136.887 47.808 136.268 47.8933 135.586 47.936C134.903 48.0213 134.327 48.064 133.858 48.064Z" fill="black"/>
<path d="M108.483 48.064C105.112 48.064 102.509 47.104 100.675 45.184C98.8825 43.264 97.9865 40.5547 97.9865 37.056V18.88H91.7145V13.184H92.9945C94.5305 13.184 95.7465 12.7147 96.6425 11.776C97.5385 10.8373 97.9865 9.6 97.9865 8.064V5.248H103.939V13.184H111.683V18.88H103.939V36.864C103.939 38.016 104.109 39.0187 104.451 39.872C104.835 40.7253 105.453 41.408 106.307 41.92C107.16 42.3893 108.291 42.624 109.699 42.624C109.997 42.624 110.36 42.6027 110.787 42.56C111.256 42.5173 111.683 42.4747 112.067 42.432V47.68C111.512 47.808 110.893 47.8933 110.211 47.936C109.528 48.0213 108.952 48.064 108.483 48.064Z" fill="black"/>
<path d="M74.131 48.448C70.675 48.448 67.667 47.5947 65.107 45.888C62.547 44.1813 60.7337 41.8773 59.667 38.976L64.403 36.672C65.3843 38.72 66.7283 40.3413 68.435 41.536C70.1417 42.7307 72.0403 43.328 74.131 43.328C76.0083 43.328 77.5657 42.88 78.803 41.984C80.0403 41.088 80.659 39.9147 80.659 38.464C80.659 37.44 80.3603 36.6293 79.763 36.032C79.2083 35.392 78.5257 34.9013 77.715 34.56C76.9043 34.176 76.1577 33.8987 75.475 33.728L70.291 32.256C67.1763 31.36 64.8937 30.08 63.443 28.416C62.035 26.752 61.331 24.8107 61.331 22.592C61.331 20.544 61.843 18.7733 62.867 17.28C63.9337 15.744 65.363 14.5493 67.155 13.696C68.9897 12.8427 71.0377 12.416 73.299 12.416C76.3283 12.416 79.0377 13.184 81.427 14.72C83.859 16.256 85.587 18.4107 86.611 21.184L81.747 23.424C80.979 21.632 79.827 20.224 78.291 19.2C76.755 18.1333 75.027 17.6 73.107 17.6C71.3577 17.6 69.971 18.048 68.947 18.944C67.923 19.7973 67.411 20.8853 67.411 22.208C67.411 23.1893 67.667 24 68.179 24.64C68.691 25.2373 69.3097 25.7067 70.035 26.048C70.7603 26.3467 71.4643 26.6027 72.147 26.816L77.779 28.48C80.595 29.2907 82.771 30.5493 84.307 32.256C85.8857 33.9627 86.675 36.0107 86.675 38.4C86.675 40.32 86.1417 42.048 85.075 43.584C84.0083 45.12 82.5363 46.3147 80.659 47.168C78.7817 48.0213 76.6057 48.448 74.131 48.448Z" fill="black"/>
<path d="M46.5915 47.68V13.184H52.5435V47.68H46.5915ZM46.5915 7.68V0H52.5435V7.68H46.5915Z" fill="black"/>
<path d="M17.216 47.68L0 0H6.72L21.312 41.92H19.968L34.56 0H41.28L24.128 47.68H17.216Z" fill="black"/>
</svg>
